# xmcd
#
# Track frame offsets:
# 150
# 13361
# 27089
# 39239
# 53135
# 64717
# 74846
# 90430
# 101516
# 117616
#
# Disc length: 1723 seconds
#
#
# Revision: 0
# Processed by: cddbd v1.5.2PL0 Copyright (c) Steve Scherf et al.
# Submitted via: FreeRIP 2.90 
#
DISCID=8606b90a
DTITLE=A Frank Willis - Gospel Classics
DYEAR=2011
DGENRE=Gospel
TTITLE0=Gospel Medley
TTITLE1=Farther Along
TTITLE2=Blessed Saviour
TTITLE3=Sunny Side of Life
TTITLE4=Home in Heaven
TTITLE5=Power in the Blood
TTITLE6=Jesus Take Hold of my Hand
TTITLE7=Man Walkin' on the Water
TTITLE8=Softly And Tenderly
TTITLE9=Rocky Road to Heaven
EXTD=
EXTT0=
EXTT1=
EXTT2=
EXTT3=
EXTT4=
EXTT5=
EXTT6=
EXTT7=
EXTT8=
EXTT9=
PLAYORDER=
